<?xml version="1.0" encoding="UTF-8"?>
<!DOCTYPE svg PUBLIC "-//W3C//DTD SVG 1.1//EN" "http://www.w3.org/Graphics/SVG/1.1/DTD/svg11.dtd">
<!-- Creator: CorelDRAW 2020 (64-Bit) -->
<svg xmlns="http://www.w3.org/2000/svg" xml:space="preserve" width="72.43mm" height="17.8422mm" version="1.1" style="shape-rendering:geometricPrecision; text-rendering:geometricPrecision; image-rendering:optimizeQuality; fill-rule:evenodd; clip-rule:evenodd"
viewBox="0 0 7238.54 1783.12"
 xmlns:xlink="http://www.w3.org/1999/xlink"
 xmlns:xodm="http://www.corel.com/coreldraw/odm/2003">
 <defs>
  <style type="text/css">
   <![CDATA[
    .fil0 {fill:none}
    .fil4 {fill:white}
    .fil1 {fill:black;fill-rule:nonzero}
    .fil2 {fill:url(#id0)}
    .fil3 {fill:url(#id1)}
   ]]>
  </style>
  <linearGradient id="id0" gradientUnits="userSpaceOnUse" x1="2010.04" y1="235.06" x2="3232.24" y2="751.46">
   <stop offset="0" style="stop-opacity:1; stop-color:#3F3687"/>
   <stop offset="0.411765" style="stop-opacity:1; stop-color:#972476"/>
   <stop offset="0.74902" style="stop-opacity:1; stop-color:#E21D29"/>
   <stop offset="1" style="stop-opacity:1; stop-color:#FABD2E"/>
  </linearGradient>
  <linearGradient id="id1" gradientUnits="userSpaceOnUse" x1="155.16" y1="550.59" x2="2078.49" y2="1449.02">
   <stop offset="0" style="stop-opacity:1; stop-color:#3F3687"/>
   <stop offset="0.211765" style="stop-opacity:1; stop-color:#972476"/>
   <stop offset="0.670588" style="stop-opacity:1; stop-color:#E21D29"/>
   <stop offset="1" style="stop-opacity:1; stop-color:#FABD2E"/>
  </linearGradient>
 </defs>
 <g id="Layer_x0020_1">
  <metadata id="CorelCorpID_0Corel-Layer"/>
  <rect class="fil0" y="0.01" width="7238.54" height="1783.1"/>
  <path class="fil1" d="M2521.03 1186.35c10.66,-5.45 22.28,-9 34.61,-10.66 12.32,-1.66 24.18,-2.85 35.56,-3.56 22.76,-1.66 45.51,-3.32 68.27,-4.74 22.76,-1.43 45.51,-2.61 68.28,-3.8 3.08,0 6.4,0 9.95,0 3.56,0 6.88,-0.47 9.95,-1.42 6.88,0 12.32,-3.56 16.12,-10.43 2.61,-3.79 4.98,-7.83 7.59,-11.85 2.61,-4.03 4.98,-8.29 7.59,-12.8 45.99,-76.56 92.92,-151.48 140.81,-224.72 47.88,-73.25 99.56,-145.08 154.79,-215.25 7.11,-9.48 14.46,-18.73 22.76,-27.49 8.06,-8.77 16.35,-17.78 24.41,-26.55 9,-8.76 17.54,-16.59 25.6,-23.23 8.29,-6.65 17.54,-12.8 28.44,-18.5 5.46,-2.6 12.09,-3.79 19.68,-3.79 13.27,0 23.71,4.51 31.76,13.27 7.83,8.77 13.75,19.44 17.78,31.77 4.03,12.32 6.88,25.12 8.53,38.64 1.66,13.75 2.61,25.12 3.32,34.61 1.19,17.07 1.19,34.38 0,52.16 -4.27,59.25 -10.19,117.58 -17.3,174.7 -7.12,56.89 -15.17,114.5 -23.95,172.57 -1.42,5.69 -2.37,11.38 -2.61,16.59 -0.47,5.46 -0.95,10.67 -1.66,15.65 -0.47,3.08 0,5.69 1.9,7.59 1.89,1.9 4.5,2.85 7.59,2.85 4.98,0.95 9.71,1.42 13.75,1.42 4.03,0 8.29,0 12.79,0 12.09,0.47 23.95,0.71 36.04,0.71 12.09,0 23.94,0.24 36.03,0.71 6.88,1.43 14.46,3.09 22.76,5.46 8.3,2.37 12.33,8.06 12.33,17.3 0.71,6.65 -2.61,11.85 -9.48,15.65 -7.59,5.69 -16.83,8.53 -27.5,8.53 -4.98,0 -10.19,-1.9 -15.17,-5.69 -4.5,-3.33 -10.42,-5.7 -18.01,-7.12l-68.28 0c-8.06,0 -13.03,4.27 -14.69,12.8 -2.61,11.37 -4.75,22.76 -6.64,34.13 -1.9,11.38 -3.8,22.77 -5.7,34.14 -8.76,45.51 -17.3,91.03 -25.83,136.55 -8.53,45.51 -17.07,91.02 -25.84,136.54 -1.42,9.48 -2.84,18.73 -4.5,27.97 -1.66,9.24 -3.56,18.26 -5.46,27.02 -0.71,3.09 -1.18,5.93 -1.9,8.07 -0.71,2.13 -1.66,4.98 -2.84,8.06 -1.19,3.09 -3.8,5.7 -7.59,7.59 -3.8,1.9 -7.59,2.14 -11.38,0.95 -3.79,-1.18 -6.88,-3.56 -9.48,-6.64 -2.61,-3.08 -3.79,-6.64 -3.79,-10.43 0,-4.5 0.47,-7.59 1.42,-9.47 6.88,-36.04 13.75,-71.84 20.15,-107.62 6.65,-35.8 13.51,-71.6 20.39,-107.62 5.7,-29.63 10.9,-59.02 15.88,-87.71 5.22,-28.68 10.43,-57.6 16.12,-86.77l0 -10.42c0.72,-1.19 0.24,-2.38 -1.42,-3.56 -1.66,-1.43 -3.08,-2.14 -4.27,-2.14 -4.51,0 -8.76,-0.23 -12.8,-0.71 -4.03,-0.47 -8.76,-0.71 -13.74,-0.71 -26.55,0.71 -53.58,1.42 -81.31,2.13 -27.97,0.72 -58.79,1.43 -92.93,2.14 -21.33,1.18 -45.51,2.13 -72.3,2.85 -27.02,0.71 -54.53,1.66 -82.97,2.84 -1.9,0 -3.56,0.24 -5.22,0.71 -1.66,0.48 -3.32,0.71 -5.22,0.71 -12.56,0.72 -20.86,7.83 -24.65,21.82 0,2.61 0.72,4.5 1.9,5.69 1.19,1.9 3.8,4.03 7.59,6.64 3.09,2.61 6.17,4.98 9.01,7.12 2.84,2.13 5.45,4.5 8.06,7.11 23.95,23.48 34.14,52.39 30.34,87.24 -3.79,25.36 -13.51,51.44 -29.39,78.23 -15.88,26.78 -34.85,52.86 -57.36,77.75 -22.53,24.88 -46.23,47.65 -71.12,68.27 -24.89,20.63 -48.6,37.46 -70.65,50.73 -4.98,3.09 -11.14,6.41 -18.01,9.48 -3.09,1.19 -6.41,2.13 -9.48,2.85 -3.09,0.71 -6.41,0.95 -9.48,0.95 -6.4,0 -11.61,-1.67 -16.12,-5.22 -4.51,-3.56 -6.64,-9.01 -6.64,-16.6 0,-4.98 0.71,-9.95 1.9,-14.69 1.18,-4.75 2.61,-9.72 3.79,-14.7 1.9,-5.69 4.03,-11.14 6.17,-16.59 2.13,-5.46 4.51,-10.9 7.11,-16.6 42.43,-88.42 88.19,-175.41 137.5,-260.76 2.61,-4.5 4.98,-8.76 7.12,-12.79 2.13,-4.04 4.27,-8.77 6.16,-13.75 1.19,-1.19 1.19,-3.09 0,-5.22 -1.18,-2.13 -2.84,-3.56 -4.74,-4.27 -8.77,-1.9 -17.78,-3.56 -27.02,-5.22 -9.24,-1.66 -18.49,-2.61 -27.97,-3.32 -13.99,-1.18 -27.73,-2.13 -41.24,-2.85 -13.51,-0.71 -27.02,-1.66 -40.31,-2.84 -3.79,-0.71 -7.82,-0.95 -11.85,-0.95 -4.03,0 -7.82,-0.71 -10.9,-1.9 -6.88,-1.18 -13.27,-3.08 -18.96,-5.69 -5.7,-3.08 -8.77,-8.07 -9.48,-14.93 -0.71,-6.88 1.9,-11.85 7.59,-14.94zm2074.68 230.42c2.75,-29.82 9.83,-59.83 21.27,-90.02 -9.52,8.97 -19.14,17.57 -28.85,25.78 -15.41,13.03 -29.16,23 -41.24,30.1 -10.67,6.41 -21.58,11.62 -32.24,16.12 -10.67,4.51 -22.05,7.83 -34.14,10.43 -9.48,1.18 -18.73,1.9 -27.97,1.9 -9.24,0 -18.49,-1.66 -27.97,-4.75 -11.37,-3.08 -20.39,-8.76 -27.02,-17.07 -6.64,-8.29 -11.14,-18.01 -13.75,-29.39 -1.18,-3.79 -1.66,-7.59 -1.42,-11.37 0.24,-3.8 0.24,-7.59 -0.47,-11.38 0,-15.64 3.56,-34.14 10.42,-55.24 6.88,-21.1 16.36,-41.71 27.97,-61.63 11.62,-19.91 25.13,-37.69 40.31,-53.81 15.17,-16.12 30.58,-27.02 46.46,-32.72 8.76,-3.08 17.3,-4.03 25.6,-2.84 11.37,1.18 20.38,5.93 27.02,13.75 6.64,7.82 9.71,17.3 9,28.68 -1.19,9.95 -4.74,19.67 -10.43,28.68 -5.69,9.24 -12.56,17.3 -20.86,24.65 -8.29,7.11 -17.31,13.51 -27.02,18.72 -9.72,5.46 -19.2,9.25 -27.97,11.85 -5.69,1.9 -11.14,2.85 -16.59,2.85 -5.46,0 -10.91,-0.47 -16.6,-0.95 -6.4,-1.18 -10.43,1.19 -12.32,7.59 -4.98,9.24 -9.01,18.97 -11.85,28.68 -2.85,9.72 -5.22,19.68 -7.12,29.63 -1.18,5.7 -1.66,11.14 -1.42,16.6 0.24,5.22 1.66,10.42 4.27,15.41 3.08,7.59 8.53,12.32 16.12,14.22 7.59,1.89 14.93,2.84 21.81,2.84 18.25,0 36.98,-4.98 55.95,-15.17 18.96,-9.95 37.22,-22.52 54.52,-37.22 17.31,-14.93 33.9,-30.81 49.31,-47.88 15.41,-16.83 28.68,-32.48 39.36,-46.23l13.73 -16.41 3.34 -5.87c2.84,-4.98 6.87,-9.48 11.85,-13.27 3.79,-4.99 9.71,-6.41 18.01,-3.8 4.51,1.19 7.36,4.27 9.01,9 1.66,4.75 1.42,9.01 -0.48,12.8 -1.18,2.61 -2.61,4.98 -3.79,7.12 -1.19,2.13 -2.61,4.5 -3.8,7.11 -12.56,20.87 -23.95,42.2 -33.66,64.01 -9.72,21.81 -18.26,44.09 -25.12,66.85 -1.9,1.9 -1.66,2.84 0.94,2.84l1.9 0c0,0 0.24,0 0.95,0 1.9,-3.08 4.03,-5.93 6.17,-8.06 2.13,-2.14 4.03,-4.98 5.22,-8.07 8.76,-13.98 17.54,-27.73 26.07,-41.71 8.53,-13.99 17.3,-27.73 26.07,-41.72 8.77,-13.27 17.78,-26.31 26.55,-39.35 8.76,-13.04 18.01,-25.84 27.49,-38.41 6.88,-9.48 14.94,-19.68 24.19,-30.34 9.24,-10.67 19.2,-20.63 29.86,-29.39 10.67,-8.77 22.29,-16.36 34.61,-22.29 12.33,-5.93 24.89,-9 37.46,-9 20.15,0 34.85,7.35 43.62,21.81 8.76,14.46 13.27,30.58 13.27,48.36l0 15.17c0.71,10.66 0.24,21.33 -1.42,31.76 -1.66,10.43 -3.09,20.63 -4.27,30.82 -1.43,4.5 -2.38,8.76 -2.61,12.8 -0.48,4.03 -0.95,8.76 -1.66,13.74 0,0.72 0.47,1.19 1.42,1.9l0 0.95c1.19,-0.71 2.37,-0.95 3.32,-0.95 0.95,0 1.66,-0.24 2.37,-0.95 3.09,-3.79 5.93,-7.83 8.53,-11.85 2.61,-4.03 5.46,-8.06 8.53,-11.85 6.88,-10.66 13.99,-21.1 21.34,-31.29 7.35,-10.19 14.69,-20.15 22.29,-30.34 8.76,-10.66 18.01,-20.86 27.96,-30.34 9.72,-9.48 21.11,-17.07 33.67,-22.76 11.37,-4.51 22.76,-3.56 34.61,2.37 11.61,5.93 18.73,16.36 21.34,30.82 2.6,11.37 2.13,23.47 -0.95,36.03l-14.23 54.05c-1.89,8.29 -4.03,16.12 -6.16,23.71 -2.37,7.59 -4.27,15.41 -6.17,23.71 -3.79,11.38 -4.98,24.41 -3.79,38.88 0.71,4.98 2.84,8.77 7.11,11.38 4.03,2.61 8.77,2.84 13.75,0.95 10.66,-3.8 20.15,-9.48 28.44,-17.07 5.7,-5.69 11.38,-11.38 17.55,-17.07 5.93,-5.69 11.61,-11.61 16.59,-18.02 8.77,-10.66 17.07,-21.57 24.65,-32.71 7.59,-11.14 15.41,-22.05 23.71,-32.71 3.08,-3.8 6.16,-7.83 9,-11.85 2.85,-4.04 5.93,-8.07 9,-11.85 2.61,-3.09 5.93,-4.99 9.96,-5.7 4.03,-0.71 7.82,0 10.9,1.9 3.79,1.9 6.17,4.98 7.11,9 0.95,4.04 0.48,8.07 -1.42,11.85 -5.69,11.38 -12.56,23.24 -20.86,35.56 -8.29,12.33 -17.07,24.65 -26.55,36.99 -9.48,12.32 -19.44,23.94 -29.87,35.08 -10.42,11.14 -20.38,20.63 -29.86,28.92 -4.51,4.51 -9.24,8.07 -14.22,10.9 -4.99,2.85 -10.43,5.46 -16.12,8.07 -11.38,4.98 -23.95,6.64 -37.94,4.74 -16.35,-3.79 -27.49,-13.51 -33.18,-29.39 -4.51,-12.09 -5.7,-24.89 -3.8,-38.88 1.19,-9.48 3.08,-18.97 5.22,-28.45 2.13,-9.47 4.51,-18.96 7.12,-28.44 2.6,-8.29 4.98,-16.12 7.11,-23.71 2.14,-7.59 4.51,-15.41 7.12,-23.71 1.18,-5.69 2.13,-11.61 2.84,-17.54 0.72,-5.93 1.66,-11.85 2.85,-17.55 0.71,-2.6 0.24,-5.69 -0.95,-9.47 0,-1.9 -1.42,-3.56 -3.79,-5.22 -2.61,-1.66 -4.75,-1.66 -6.65,-0.48 -8.29,3.8 -15.64,9.24 -22.28,16.12 -6.64,6.88 -12.8,13.99 -18.49,20.87 -7.59,10.19 -15.17,20.15 -22.29,30.34 -7.35,10.19 -14.46,20.62 -21.34,31.29 -6.88,10.19 -13.75,20.15 -19.91,30.34 -6.41,10.19 -13.04,20.15 -19.92,30.34 -3.08,4.98 -6.64,9.72 -9.95,14.22 -3.56,4.51 -7.12,9.24 -10.9,14.22 -1.19,1.9 -2.85,3.56 -4.74,4.75 -1.9,1.18 -3.8,2.61 -5.7,3.79 -4.98,3.09 -10.66,3.56 -17.07,0.95 -6.4,-2.61 -10.42,-6.88 -12.32,-13.27 -2.61,-6.88 -2.61,-15.41 0,-25.6 1.9,-12.56 4.03,-25.36 6.64,-38.4 2.61,-13.04 4.75,-26.08 6.64,-39.36 1.19,-10.19 2.38,-20.15 3.56,-30.34 1.19,-10.19 2.37,-20.63 3.56,-31.29 0.71,-13.27 -0.95,-27.26 -4.74,-41.72 -3.09,-10.66 -10.67,-15.17 -22.77,-13.27 -10.66,1.9 -22.05,7.35 -33.66,16.12 -11.61,8.77 -23,18.97 -33.66,30.34 -10.66,11.38 -20.63,23 -29.87,35.09 -9.24,12.08 -16.59,22.52 -22.28,31.29 -17.78,28.44 -35.33,56.18 -52.63,83.44 -17.31,27.26 -34.61,55 -51.68,83.44 -3.08,4.98 -6.41,9.96 -9.95,14.7 -3.56,4.74 -7.12,9.24 -10.9,13.75 -3.09,4.5 -8.3,8.53 -15.18,12.32 -3.08,1.9 -6.64,2.85 -10.42,2.85 -4.98,0 -9.48,-1.43 -13.28,-4.27 -3.79,-2.85 -6.4,-6.88 -7.59,-11.85 -1.66,-5.69 -2.13,-11.14 -1.42,-16.12zm1095.29 -252.81c78.37,-39.39 208.61,-67.68 389.92,14.5 461.55,209.2 729.97,-61.72 730.75,-62.49 6.92,-6.8 18.06,-6.71 24.85,0.21 6.8,6.92 6.71,18.06 -0.21,24.85 -0.83,0.82 -286.2,288.75 -769.87,69.53 -138.05,-62.57 -243.03,-56.99 -315.44,-33.58 -103.53,33.47 -112.33,80.63 -185.75,142.36 -26.79,22.29 -55,43.62 -84.4,64 -3.08,1.9 -5.93,4.27 -8.06,7.59 -2.14,3.09 -4.03,6.17 -5.22,9.48 -6.88,18.26 -13.51,36.27 -19.91,54.05 -6.41,17.78 -13.04,35.8 -19.92,54.05 -9.48,23.48 -21.34,50.26 -35.56,80.6 -14.22,30.58 -30.81,59.5 -49.78,87 -18.97,27.5 -40.54,51.45 -64.48,71.6 -23.94,20.15 -50.49,32 -79.65,35.08 -13.27,1.19 -27.25,-0.71 -42.19,-6.16 -14.93,-5.46 -26.31,-16.36 -34.61,-32.72 -5.69,-12.08 -8.53,-24.88 -8.53,-38.88 0,-20.86 4.75,-42.19 14.22,-64 9.48,-21.81 21.58,-42.67 36.04,-62.58 14.46,-19.92 30.58,-38.41 47.88,-55.48 17.31,-17.06 33.9,-31.52 49.78,-43.61 22.05,-16.36 45.28,-32 69.23,-46.46 23.94,-14.46 48.12,-28.68 72.06,-42.67l28.45 -17.07c6.88,-4.5 12.09,-11.13 15.17,-19.91 6.4,-20.86 12.32,-41.95 18.02,-63.05 5.69,-21.11 10.66,-42.43 15.17,-64.01 0.71,-1.18 0.71,-2.61 0.47,-4.27 -0.24,-1.66 -0.47,-3.32 -0.47,-5.22 0,-1.18 -0.72,-1.89 -1.9,-1.89 -1.9,0 -2.85,0 -2.85,0 -2.37,1.89 -4.74,3.55 -6.64,5.21 -1.9,1.66 -3.79,3.56 -5.69,6.17 -8.77,10.19 -17.78,20.15 -26.79,30.34 -9.24,10.19 -18.25,20.15 -27.02,30.34 -16.83,18.97 -34.13,37.22 -51.91,54.53 -17.55,17.31 -36.51,33.9 -56.66,49.78 -4.98,4.51 -10.43,7.83 -16.12,10.43 -5.46,2.61 -11.85,4.74 -18.73,6.64 -12.56,3.8 -24.89,2.61 -36.51,-3.8 -11.61,-6.4 -19.2,-15.88 -22.29,-28.44 -3.79,-10.66 -4.98,-22.52 -3.79,-35.08 2.61,-23.95 8.53,-48.84 18.02,-74.43 9.47,-25.6 18.96,-49.55 28.44,-71.6 1.19,-1.9 2.13,-3.56 2.85,-4.74 0.71,-1.19 1.42,-2.61 1.89,-3.8 1.43,-2.61 4.04,-4.98 7.83,-6.64 3.8,-1.66 7.35,-1.66 10.43,-0.47 4.03,1.18 7.11,3.55 9.71,6.64 2.61,3.08 3.56,6.64 2.85,10.42 0,4.51 -0.95,8.53 -2.85,12.33 -7.59,18.25 -14.93,36.51 -21.81,54.52 -6.88,18.02 -13.04,36.75 -18.02,56.43 -1.18,6.88 -2.13,13.98 -2.84,20.86 -0.71,6.88 -0.24,13.99 0.95,20.86 0.71,3.8 2.61,6.88 5.69,9.48 3.08,2.61 6.88,3.09 11.37,1.9 10.67,-4.51 19.44,-8.77 26.08,-13.27 6.64,-4.51 14.22,-10.43 22.99,-18.02 21.34,-20.15 41.25,-40.77 60.21,-61.63 18.73,-20.86 37.7,-42.43 57.13,-64.48 6.88,-6.88 13.51,-14.22 19.68,-21.81 6.4,-7.59 12.79,-14.7 19.67,-21.34 4.51,-4.51 9.95,-9.24 16.6,-14.7 6.4,-5.45 12.8,-8.06 19.2,-8.06 4.98,0 9.48,1.66 13.51,4.74 4.03,3.09 6.4,7.83 7.12,14.23 0.94,1.89 1.42,4.03 1.42,6.64 0,1.42 0,2.84 0,4.27 -0.71,14.46 -1.9,27.49 -3.8,38.88 -1.89,11.37 -4.27,22.76 -7.35,34.13 -1.9,9.48 -4.27,18.97 -6.64,28.45 -2.61,9.48 -4.98,18.96 -7.59,28.44 -0.48,2.61 -0.95,7.12 -0.95,13.27 0,3.33 1.66,4.04 4.74,1.9 5.7,-1.18 13.51,-6.17 23.95,-14.69 10.43,-8.53 21.1,-18.02 32.24,-28.92 50.15,-48.03 68.37,-82.66 136.17,-116.75zm-539.63 554.35c1.9,7.59 5.69,13.98 11.37,19.44 5.7,5.21 12.57,8.29 20.87,9 6.4,0 12.08,-0.48 17.54,-1.19 5.46,-0.71 11.14,-2.13 17.54,-4.5 6.41,-3.09 12.33,-6.17 18.02,-9.01 5.69,-2.84 11.14,-6.4 16.12,-10.9 16.36,-11.37 32,-26.78 46.46,-46.46 14.46,-19.68 28.21,-40.54 40.77,-62.58 12.56,-22.05 23.95,-44.8 34.13,-67.8 10.19,-23 18.97,-43.85 26.55,-62.1 4.51,-11.38 7.83,-20.39 10.43,-27.02 2.61,-6.65 4.5,-11.85 5.69,-15.65 1.19,-3.79 1.9,-6.4 1.9,-8.06 0,-1.66 -0.24,-3.09 -0.95,-4.27 -0.71,-1.19 -1.66,-1.9 -2.85,-1.9 -1.18,0 -3.79,0.95 -7.59,2.84 -3.79,1.9 -9.24,4.75 -16.12,8.53 -6.88,3.8 -16.12,9.24 -27.49,16.12 -19.68,12.09 -40.07,25.6 -61.63,40.77 -21.58,15.17 -41.72,31.53 -60.69,49.31 -18.96,17.78 -36.03,36.74 -51.2,57.36 -15.17,20.63 -26.55,42.43 -34.14,65.9 -3.08,8.77 -5.22,17.54 -6.16,26.07 -0.95,8.53 -0.48,17.31 1.42,26.08zm-2341.61 -560.39c3.79,0 7.59,0.24 11.37,0.71 3.8,0.47 7.59,0.71 11.38,0.71 101.69,-4.5 203.15,-7.83 304.37,-9.95 4.51,0 8.77,0 13.27,0 4.51,0 8.77,-0.47 13.28,-1.42 4.98,0 8.29,-2.61 9.47,-7.59 1.19,-4.99 2.38,-9.72 3.32,-14.23 0.95,-4.27 1.66,-9 2.38,-14.22 5.21,-33.9 10.42,-67.56 15.88,-100.27 5.45,-32.72 10.19,-66.14 13.98,-100.28 3.09,-26.54 5.7,-52.63 8.3,-78.22 2.37,-25.36 3.79,-51.45 4.5,-77.99 0,-12.56 0,-25.12 -0.24,-37.46 -0.23,-12.32 -0.71,-24.65 -1.18,-37.22 0,-7.11 -0.71,-13.75 -2.37,-19.91 -1.66,-6.41 -3.8,-12.56 -6.17,-18.97 -0.71,-2.61 -1.9,-4.98 -3.56,-7.12 -1.42,-2.13 -2.84,-4.26 -4.27,-6.16 -3.79,-4.98 -8.06,-6.41 -12.32,-3.8 -3.32,1.19 -6.17,2.61 -8.77,4.27 -2.61,1.66 -5.45,3.32 -8.53,5.22 -17.07,13.27 -33.42,29.39 -49.3,48.36 -17.07,18.96 -33.43,38.64 -48.84,58.78 -15.41,20.39 -30.81,41.25 -45.98,62.82 -38.65,54.29 -75.86,109.28 -111.89,164.99 -36.04,55.71 -71.12,112.36 -105.26,169.97 -1.9,2.61 -4.03,6.41 -6.64,11.38 -0.71,1.18 -0.47,2.84 0.47,4.74 0.95,1.9 2.14,2.85 3.33,2.85zm-224.73 411.05c0,1.9 0.95,1.9 2.85,0 2.61,-1.19 4.98,-2.61 7.11,-3.79 2.14,-1.19 4.51,-2.61 7.12,-3.8 17.78,-12.56 35.56,-26.78 53.58,-42.67 18.01,-15.88 35.08,-32.71 51.2,-50.73 16.12,-18.01 30.82,-36.74 44.09,-56.42 13.27,-19.68 23.95,-39.83 32.24,-60.68 1.9,-4.98 3.08,-10.43 3.79,-16.12 0.72,-5.69 1.19,-11.14 1.9,-16.12 0.71,-14.46 -2.37,-26.55 -9,-36.04 -6.64,-9.47 -15.88,-17.77 -27.97,-24.64 -3.8,-1.19 -6.88,-0.72 -9.48,1.89 -1.9,3.09 -4.03,6.41 -6.17,9.48 -2.13,3.09 -4.27,6.41 -6.16,9.48 -16.36,30.34 -32.95,60.45 -49.31,90.55 -16.36,30.1 -32.95,60.21 -49.31,90.55 -8.76,16.36 -17.54,33.19 -26.07,50.26 -8.53,17.06 -15.88,34.84 -22.29,53.1 0,0.71 0.72,2.61 1.9,5.69zm130.38 -368.38c1.19,2.38 2.61,3.8 3.8,4.51 1.89,1.66 3.55,2.61 4.74,2.61 1.19,-0.71 2.85,-1.9 4.74,-3.79 1.9,-1.9 1.19,-3.56 -1.89,-4.75l-5.7 0c-1.18,0 -2.13,0.24 -2.84,0.71 -0.71,0.48 -1.66,0.71 -2.85,0.71zm608.75 137.26c2.61,-17.3 8.29,-37.22 17.55,-59.97 9.24,-22.76 20.62,-44.33 34.13,-64.71 13.51,-20.39 29.39,-37.46 47.41,-51.45 18.02,-13.98 37.46,-20.86 58.31,-20.86 19.68,0 36.04,7.35 49.31,21.81 4.51,5.22 5.93,10.19 4.74,15.17 -1.18,5.22 -4.5,9.24 -9.47,12.33 -4.51,3.32 -8.53,3.56 -12.33,0.95 -3.08,-1.9 -6.4,-3.8 -9.95,-5.7 -3.56,-1.89 -6.88,-4.03 -9.95,-6.64 -5.7,-3.08 -13.04,-3.79 -21.82,-1.9 -13.27,3.8 -25.83,11.14 -37.45,21.82 -11.62,10.9 -22.29,23.47 -31.77,37.69 -9.48,14.22 -17.78,28.92 -24.65,44.09 -6.88,15.17 -12.08,28.92 -15.17,40.77 -4.5,16.59 -5.69,33.9 -3.79,52.39 3.08,18.96 14.22,29.15 33.19,30.34 11.37,0.71 22.04,-0.24 32.23,-2.85 20.87,-5.69 41.48,-14.93 62.11,-27.49 20.63,-12.56 40.07,-26.78 58.79,-42.67 18.72,-15.88 36.27,-32.47 52.62,-50.25 16.36,-17.78 31.06,-35.09 43.62,-52.16 2.61,-3.79 4.98,-7.35 7.59,-10.9 2.61,-3.56 5.45,-6.88 8.53,-9.95 3.08,-3.79 6.88,-5.93 11.37,-6.17 4.51,-0.23 8.3,1.19 11.38,4.27 3.08,2.61 4.98,5.7 5.22,9.48 0.23,3.8 -0.48,7.35 -2.37,10.43 -2.61,4.98 -4.75,8.53 -6.65,10.42 -28.44,39.83 -59.97,76.57 -94.82,109.99 -34.84,33.43 -74.9,60.45 -120.42,80.84 -20.15,8.29 -38.17,12.56 -54.05,12.56l-12.33 0c-19.68,0 -35.56,-5.22 -47.88,-15.64 -12.33,-10.43 -20.15,-25.37 -23.24,-44.33 -2.61,-13.99 -2.61,-27.97 0,-41.72zm280.68 -11.61c2.61,-17.07 8.06,-36.03 16.59,-56.66 8.53,-20.86 19.44,-40.3 32.71,-59.02 13.28,-18.49 28.45,-33.9 45.52,-46.46 17.06,-12.57 35.79,-18.97 55.94,-18.97 12.09,0 23.71,2.85 35.09,8.53 2.61,1.19 4.98,2.37 7.12,3.32 2.13,0.95 4.5,2.13 7.11,3.32 3.09,1.9 5.93,0.95 8.53,-2.85 3.08,-3.79 6.17,-7.59 9,-11.37 2.85,-3.8 5.93,-7.83 9.01,-12.33 1.9,-2.6 4.03,-4.74 6.64,-6.64 2.61,-1.89 5.46,-3.56 8.53,-4.74 4.98,-2.61 10.43,-2.61 16.12,-0.48 5.69,2.14 9.24,6.17 10.42,11.85 1.19,6.41 1.9,11.62 1.9,16.12 -1.18,5.7 -2.61,11.62 -3.79,17.55 -1.19,5.93 -2.61,11.85 -3.8,17.54 -4.98,18.25 -9.71,36.27 -14.22,53.81 -4.51,17.78 -8.29,35.8 -11.38,54.05 -3.08,17.55 -3.79,33.9 -1.89,49.07 1.18,14.7 5.45,23.71 12.8,27.5 7.35,3.79 17.54,4.03 30.81,0.95 12.56,-3.09 25.36,-9.95 38.41,-20.87 13.03,-10.66 25.36,-23.23 36.98,-37.22 11.61,-14.22 22.52,-28.68 32.24,-43.61 9.71,-14.93 17.78,-27.73 24.18,-38.41 2.61,-3.79 4.99,-7.59 7.12,-11.37 2.13,-3.8 4.51,-7.12 7.12,-10.43 2.6,-4.27 6.64,-6.4 12.32,-6.4 5.69,0 9.72,2.37 12.32,7.35 2.61,4.51 2.85,8.53 0.95,12.32 -1.18,3.8 -2.61,7.12 -3.79,9.48 -8.29,14.46 -18.26,31.53 -30.34,50.73 -12.09,19.21 -25.36,37.94 -39.83,55.71 -14.46,18.02 -30.58,33.67 -47.89,46.94 -17.3,13.27 -35.56,20.86 -54.52,22.76 -20.15,2.61 -36.75,-1.18 -49.78,-11.37 -13.04,-10.19 -20.63,-25.36 -23.24,-45.52 -1.19,-4.98 -1.9,-9.95 -1.9,-14.69 0,-4.75 0,-9.48 0,-14.7 0,-14.46 1.43,-28.44 4.27,-41.95 2.85,-13.51 5.46,-27.26 8.07,-41.25 0,-1.89 -0.24,-2.84 -0.95,-2.84 0,-1.19 -0.71,-1.19 -1.9,0 0,0 -0.24,0 -0.95,0 -1.9,2.61 -3.79,4.74 -5.69,6.64 -1.9,1.9 -3.56,4.03 -4.74,6.64l-42.67 65.43c-9.48,13.03 -20.63,26.54 -33.66,40.06 -13.04,13.51 -26.79,24.19 -41.24,31.77 -8.77,4.51 -19.21,7.35 -31.3,8.53 -22.04,1.9 -37.22,-8.07 -45.51,-30.11 -3.79,-12.56 -4.74,-25.12 -2.84,-37.69zm35.08 12.8c0.71,2.61 1.19,4.98 1.42,7.59 0.24,2.61 1.19,4.98 2.38,7.59 0,0.71 1.66,1.9 4.74,3.79 4.98,1.9 10.19,1.19 15.17,-1.89 6.41,-2.61 12.09,-5.7 17.07,-9.48 4.98,-3.8 10.19,-8.29 15.17,-13.27 17.78,-20.16 33.43,-40.07 46.94,-59.74 13.51,-19.68 27.25,-41.48 41.24,-65.43l2.84 -5.69c1.9,-4.5 0.95,-8.53 -2.84,-12.32 -8.29,-6.41 -17.31,-9.48 -27.5,-9.48 -13.98,0 -27.02,4.74 -39.35,14.22 -12.33,9.48 -23.47,21.1 -33.19,34.61 -9.71,13.51 -18.25,27.97 -25.12,43.14 -6.88,15.17 -12.09,28.45 -15.17,39.83 -1.19,4.51 -2.14,8.77 -2.38,12.8 -0.23,4.03 -0.71,8.77 -1.42,13.75zm313.87 8.29c2.61,-17.78 8.53,-37.22 18.01,-58.55 9.48,-21.34 21.34,-41 35.56,-59.02 14.23,-18.02 30.34,-33.19 48.36,-45.28 18.02,-12.08 37.46,-18.01 58.31,-18.01 10.19,-0.71 19.44,0.71 27.97,3.79 8.53,3.09 16.83,7.36 25.13,12.33 4.98,4.5 11.13,8.76 18.01,13.27 0.71,0.71 1.66,0.71 2.85,0 1.18,-0.71 2.13,-1.19 2.84,-1.9 1.19,-1.89 2.14,-4.03 2.38,-6.16 0.23,-2.14 0.71,-4.27 1.42,-6.17 4.51,-22.05 11.14,-49.55 20.39,-82.26 9.24,-32.71 20.39,-65.43 33.66,-97.9 13.27,-32.48 28.68,-62.35 45.99,-89.84 17.3,-27.26 36.74,-46.7 58.31,-58.07 11.37,-5.7 23,-7.59 35.08,-5.7 9.48,1.19 17.78,4.98 24.65,11.38 6.88,6.4 11.14,14.46 12.33,24.65 1.89,13.98 0.95,27.73 -2.85,41.71 -7.59,23.48 -18.25,47.65 -31.76,73.02 -13.51,25.36 -28.69,50.49 -45.52,75.85 -16.83,25.37 -33.9,49.55 -51.68,72.55 -17.78,23 -34.37,43.85 -50.25,62.1 -3.09,3.09 -5.93,6.41 -8.53,9.96 -2.61,3.55 -5.46,7.11 -8.53,10.9 -2.61,2.61 -3.79,5.45 -3.79,8.53 -3.8,20.86 -6.17,41.95 -7.12,63.05 -0.95,21.1 1.42,42.19 7.12,63.06 0.71,3.08 2.13,7.35 4.74,12.32 6.88,12.56 17.07,17.07 30.34,13.27 13.27,-5.69 25.6,-13.27 36.98,-22.76 11.38,-9.48 22.05,-19.68 32.24,-30.34 15.88,-18.25 31.53,-36.75 46.94,-55.47 15.41,-18.73 30.58,-37.7 45.04,-57.37 1.89,-2.61 3.79,-4.98 5.69,-7.59 1.9,-2.61 4.03,-4.98 6.64,-7.59 4.98,-4.98 11.14,-5.69 18.02,-1.89 7.59,3.79 10.19,9.71 7.59,18.01 -2.61,4.98 -4.75,8.77 -6.64,11.38 -18.26,26.54 -38.65,54.29 -60.69,83.44 -22.05,29.16 -46.22,54.05 -72.07,74.91 -5.69,4.98 -11.61,9.71 -18.01,13.74 -6.41,4.04 -13.04,7.83 -19.92,10.91 -10.66,3.79 -20.15,5.69 -28.44,5.69 -23.47,1.9 -40.77,-6.88 -52.15,-26.55 -4.99,-8.29 -8.77,-16.83 -10.91,-25.6 -2.13,-8.76 -4.03,-18.01 -5.21,-27.49 -0.72,-5.69 -0.95,-11.61 -0.95,-17.54 0,-5.93 -0.24,-11.85 -0.95,-17.55 0,-3.08 0,-5.93 0,-8.52 0,-2.61 -0.24,-5.46 -0.95,-8.53 0,-1.19 -1.19,-2.61 -3.8,-3.8 -1.89,0 -2.84,0.24 -2.84,0.95 -3.09,1.9 -5.93,4.03 -8.07,6.17 -2.13,2.13 -4.5,4.27 -7.11,6.16 -7.59,7.59 -17.31,16.84 -28.92,27.5 -11.61,10.66 -23.95,21.34 -36.98,31.76 -13.04,10.43 -25.84,19.92 -38.88,28.45 -13.04,8.53 -24.89,14.46 -35.56,17.54 -3.09,0.71 -6.41,1.19 -9.96,1.9 -3.55,0.71 -6.88,0.95 -9.95,0.95 -17.78,-0.72 -30.58,-9.24 -38.88,-25.6 -4.98,-11.61 -6.64,-24.19 -4.74,-38.17zm36.03 3.56l0 9.48c0,11.37 5.93,15.4 18.02,12.32 7.59,-2.61 14.46,-5.46 20.86,-8.53 6.88,-4.98 13.75,-9.71 20.39,-14.22 6.64,-4.51 13.04,-9.24 19.44,-14.22 16.36,-13.28 32.48,-27.26 47.88,-41.72 15.41,-14.46 30.58,-29.63 45.04,-45.51 1.19,-2.61 2.61,-4.51 3.8,-5.69 3.79,-3.8 3.79,-7.59 0,-11.38 -4.98,-8.29 -12.56,-15.17 -22.29,-20.86 -9.71,-5.7 -19.44,-8.53 -28.92,-8.53 -13.27,0 -26.31,4.27 -39.35,12.8 -13.04,8.53 -24.65,19.2 -35.09,31.76 -10.42,12.56 -19.44,26.07 -27.02,40.3 -7.59,14.23 -13.27,27.03 -17.07,38.41 -1.89,4.98 -3.08,9.95 -3.79,14.7 -0.71,4.74 -1.19,8.29 -1.9,10.9zm252.22 -208.61c0,1.9 0.24,2.85 0.95,2.85 2.61,0 4.51,-0.24 5.69,-0.95 1.9,-1.9 3.08,-3.56 3.8,-4.74 9.47,-12.09 21.81,-28.45 36.98,-49.31 15.17,-20.86 30.1,-42.9 44.56,-65.9 14.46,-23 27.26,-45.99 38.41,-68.75 11.14,-22.76 17.3,-41.72 18.49,-56.89 0,-6.4 -1.66,-10.66 -4.74,-13.27 -3.09,-4.51 -8.3,-4.74 -15.17,-0.95 -5.7,2.61 -11.14,5.93 -16.12,10.43 -13.99,13.98 -26.79,30.81 -38.41,50.73 -11.61,19.91 -22.29,40.77 -31.76,62.58 -9.48,21.81 -17.78,43.85 -24.65,65.9 -6.88,22.05 -13.04,42.67 -18.02,61.63 -0.71,1.9 -0.71,4.03 0,6.64zm226.15 78.23c0,-0.71 0.95,-0.24 2.84,1.42 3.09,0 7.36,-0.47 12.33,-1.42 17.07,-7.59 31.29,-18.97 42.66,-34.14 1.19,-1.18 2.14,-3.08 2.85,-5.22 0.71,-2.13 1.66,-4.27 2.85,-6.16 0,-5.7 -2.14,-8.53 -6.65,-8.53 -4.98,0 -10.42,1.66 -16.11,5.22 -5.7,3.55 -11.14,7.82 -16.6,13.27 -5.45,5.45 -10.19,10.66 -14.69,16.12 -4.51,5.45 -7.83,9.95 -10.43,13.75 -0.71,0.71 -0.24,2.61 0.95,5.69z"/>
  <path class="fil2" d="M3159.27 454.34l-179.76 0.82 0 -63.48 217.57 0 41.89 -112.48 -377.47 0 0 475.45 134.36 0c26.07,-38.74 50.08,-76.22 86.28,-112.48l-102.63 0 0 -74.52 123.87 0 55.89 -113.3zm-1096.84 -168.94l140.77 469.24 129.04 0 111.09 -311.68 112.48 311.68 129.04 0 142.84 -475.45 -126.97 6.9 -84.18 306.16 -104.21 -313.06 -139.38 7.59 -101.44 305.47 -85.57 -313.06 -123.52 6.21z"/>
  <polygon class="fil1" points="3411.49,279.2 3294.17,279.2 3294.17,754.65 3411.49,754.65 "/>
  <polygon class="fil1" points="3955.25,279.2 3837.95,279.2 3841.39,570.17 3606.08,279.2 3490.84,279.2 3490.84,754.65 3608.16,754.65 3604.01,457.46 3834.49,754.65 3955.25,754.65 "/>
  <polygon class="fil1" points="4024.94,279.2 4024.94,754.65 4142.26,754.65 4142.26,567.64 4298.89,567.64 4308.56,455.16 4142.26,455.16 4142.26,391.68 4391.37,391.68 4401.03,279.2 "/>
  <polygon class="fil1" points="4560.43,642.16 4560.43,279.2 4443.11,279.2 4443.11,754.65 4810.92,754.65 4820.58,642.16 "/>
  <path class="fil1" d="M5332.6 279.2l-117.31 0 0 228.18c0,77.4 -8.27,136.86 -127.66,136.86 -118.69,0 -126.96,-59.45 -126.96,-136.86l0 -228.18 -117.32 0 0 228.18c0,178.26 96.61,250.03 244.28,250.03 148.37,0 244.97,-71.77 244.97,-250.03l0 -228.18z"/>
  <polygon class="fil1" points="5696.26,455.16 5529.28,455.16 5529.28,391.68 5779.07,391.68 5788.74,279.2 5411.27,279.2 5411.27,754.65 5781.14,754.65 5790.8,642.16 5529.28,642.16 5529.28,567.64 5686.61,567.64 "/>
  <polygon class="fil1" points="6308.35,279.2 6191.04,279.2 6194.49,570.17 5959.17,279.2 5843.93,279.2 5843.93,754.65 5961.25,754.65 5957.1,457.46 6187.58,754.65 6308.35,754.65 "/>
  <path class="fil1" d="M6620.93 644.23c-93.15,0 -142.15,-42.78 -142.15,-126.27 0,-84.19 49,-126.97 142.15,-126.97 49,0 105.58,9.65 135.95,18.63l33.12 -106.95c-42.78,-14.49 -106.26,-24.84 -169.07,-24.84 -147.67,0 -260.15,75.21 -260.15,240.14 0,164.23 112.48,239.44 260.15,239.44 80.05,0 129.73,-11.04 186.32,-33.12l-38.64 -104.89c-35.2,13.8 -82.81,24.83 -147.68,24.83z"/>
  <polygon class="fil1" points="7143.99,455.16 6977,455.16 6977,391.68 7226.8,391.68 7236.46,279.2 6859,279.2 6859,754.65 7228.87,754.65 7238.53,642.16 6977,642.16 6977,567.64 7134.34,567.64 "/>
  <path class="fil3" d="M256.17 208.62l209.42 0c-0.51,-5.66 -0.79,-11.37 -0.79,-17.15l0 0c0,-105.32 86.17,-191.47 191.47,-191.47l454.24 0c105.31,0 191.47,86.16 191.47,191.47l0 0c0,5.78 -0.27,11.49 -0.79,17.15l275.46 0c140.89,0 256.16,115.26 256.16,256.17l0 858.28c0,140.92 -115.27,256.17 -256.16,256.17l-1320.49 0c-140.89,0 -256.16,-115.25 -256.16,-256.17l0 -858.28c0,-140.91 115.27,-256.17 256.16,-256.17z"/>
  <path class="fil4" d="M851.19 436.32l518.88 352.81c45.25,30.78 45.25,81.13 0,111.91l-518.88 352.81c-117.27,79.73 -164.57,11.39 -164.57,-65.99l0 -673.25c0,-72.13 41.62,-161.89 164.57,-78.3z"/>
 </g>
</svg>
